<svg width="16" height="18" viewBox="0 0 16 18" fill="none" xmlns="http://www.w3.org/2000/svg">
<g id="Document">
<path id="Stroke 1" d="M11.0967 12.5195H5.08008" stroke="url(#paint0_linear_87_341)" stroke-width="1.2" stroke-linecap="round" stroke-linejoin="round"/>
<path id="Stroke 2" d="M11.0967 9.03068H5.08008" stroke="url(#paint1_linear_87_341)" stroke-width="1.2" stroke-linecap="round" stroke-linejoin="round"/>
<path id="Stroke 3" d="M7.37616 5.54997H5.08032" stroke="url(#paint2_linear_87_341)" stroke-width="1.2" stroke-linecap="round" stroke-linejoin="round"/>
<path id="Stroke 4" fill-rule="evenodd" clip-rule="evenodd" d="M11.2572 1.2915C11.2572 1.2915 4.85965 1.29484 4.84965 1.29484C2.54965 1.309 1.12549 2.82234 1.12549 5.13067V12.794C1.12549 15.114 2.56049 16.6332 4.88049 16.6332C4.88049 16.6332 11.2772 16.6307 11.288 16.6307C13.588 16.6165 15.013 15.1023 15.013 12.794V5.13067C15.013 2.81067 13.5772 1.2915 11.2572 1.2915Z" stroke="url(#paint3_linear_87_341)" stroke-width="1.2" stroke-linecap="round" stroke-linejoin="round"/>
</g>
<defs>
<linearGradient id="paint0_linear_87_341" x1="11.0967" y1="12.9361" x2="4.94876" y2="9.5013" gradientUnits="userSpaceOnUse">
<stop stop-color="#92A3FD"/>
<stop offset="1" stop-color="#9DCEFF"/>
</linearGradient>
<linearGradient id="paint1_linear_87_341" x1="11.0967" y1="9.44735" x2="4.94876" y2="6.01253" gradientUnits="userSpaceOnUse">
<stop stop-color="#92A3FD"/>
<stop offset="1" stop-color="#9DCEFF"/>
</linearGradient>
<linearGradient id="paint2_linear_87_341" x1="7.37616" y1="5.96663" x2="4.43178" y2="5.33894" gradientUnits="userSpaceOnUse">
<stop stop-color="#92A3FD"/>
<stop offset="1" stop-color="#9DCEFF"/>
</linearGradient>
<linearGradient id="paint3_linear_87_341" x1="15.013" y1="16.6332" x2="-3.5161" y2="15.3353" gradientUnits="userSpaceOnUse">
<stop stop-color="#92A3FD"/>
<stop offset="1" stop-color="#9DCEFF"/>
</linearGradient>
</defs>
</svg>
